<!-- Feather Icons -->
<svg xmlns="http://www.w3.org/2000/svg" xmlns:xlink="http://www.w3.org/1999/xlink">
    <defs>
        <symbol id="search" viewBox="0 0 24 24" fill="none" stroke="currentColor" stroke-width="2" stroke-linecap="round" stroke-linejoin="round" class="feather feather-search">
            <circle cx="11" cy="11" r="8"></circle>
            <line x1="21" y1="21" x2="16.65" y2="16.65"></line>
        </symbol>
        <symbol id="shopping-bag" viewBox="0 0 24 24" fill="none" stroke="currentColor" stroke-width="2" stroke-linecap="round" stroke-linejoin="round" class="feather feather-shopping-bag">
            <path d="M6 2L3 6v14a2 2 0 0 0 2 2h14a2 2 0 0 0 2-2V6l-3-4z"></path>
            <line x1="3" y1="6" x2="21" y2="6"></line>
            <path d="M16 10a4 4 0 0 1-8 0"></path>
        </symbol>
        <symbol id="chevron-down" viewBox="0 0 24 24" fill="none" stroke="currentColor" stroke-width="2" stroke-linecap="round" stroke-linejoin="round" class="feather feather-chevron-down">
            <polyline points="6 9 12 15 18 9"></polyline>
        </symbol>
        <symbol id="menu" viewBox="0 0 24 24" fill="none" stroke="currentColor" stroke-width="2" stroke-linecap="round" stroke-linejoin="round" class="feather feather-menu">
            <line x1="3" y1="12" x2="21" y2="12"></line>
            <line x1="3" y1="6" x2="21" y2="6"></line>
            <line x1="3" y1="18" x2="21" y2="18"></line>
        </symbol>
        <symbol id="x" viewBox="0 0 24 24" fill="none" stroke="currentColor" stroke-width="2" stroke-linecap="round" stroke-linejoin="round" class="feather feather-x">
            <line x1="18" y1="6" x2="6" y2="18"></line>
            <line x1="6" y1="6" x2="18" y2="18"></line>
        </symbol>
    </defs>
</svg>
